<svg id="b4ce20e6-8fe7-43d5-87f7-68602c562594" data-name="Layer 1" xmlns="http://www.w3.org/2000/svg" width="200" height="200" viewBox="0 0 1061 742.85506"><title>task</title>
    <rect x="256.50394" y="241.79404" width="600.8291" height="199.50307" fill="#222121"/>
    <circle cx="282.47612" cy="271.21385" r="25" fill="#00bfa6"/>
    <rect x="305.92003" y="330.97283" width="500.44084" height="9.19369" fill="#00bfa6"/>
    <rect x="305.92003" y="354.87642" width="500.44084" height="9.19369" fill="#00bfa6"/>
    <rect x="305.92003" y="378.78002" width="500.44084" height="9.19369" fill="#00bfa6"/>
    <rect x="305.92003" y="402.68361" width="500.44084" height="9.19369" fill="#00bfa6"/>
    <circle cx="86.42068" cy="77.22699" r="25" fill="#f2f2f2"/>
    <rect x="109.86459" y="136.98598" width="348.44084" height="9.19369" fill="#f2f2f2"/>
    <rect x="109.86459" y="160.88957" width="348.44084" height="9.19369" fill="#f2f2f2"/>
    <rect x="109.86459" y="184.79316" width="348.44084" height="9.19369" fill="#f2f2f2"/>
    <rect x="109.86459" y="208.69676" width="348.44084" height="9.19369" fill="#f2f2f2"/>
    <circle cx="90.09816" cy="467.95881" r="25" fill="#f2f2f2"/>
    <rect x="113.54207" y="527.71779" width="348.44084" height="9.19369" fill="#f2f2f2"/>
    <rect x="113.54207" y="551.62138" width="348.44084" height="9.19369" fill="#f2f2f2"/>
    <rect x="113.54207" y="575.52498" width="348.44084" height="9.19369" fill="#f2f2f2"/>
    <rect x="113.54207" y="599.42857" width="348.44084" height="9.19369" fill="#f2f2f2"/>
</svg>